<svg xmlns="http://www.w3.org/2000/svg" width="480" height="325" viewBox="0 0 480 325" style="background:#0d1117">
  <defs>
    <marker id="arr" markerWidth="7" markerHeight="7" refX="3.5" refY="3.5" orient="auto">
      <path d="M0,0 L7,3.5 L0,7 Z" fill="#00e5ff"/>
    </marker>
    <filter id="glow" x="-20%" y="-20%" width="140%" height="140%">
      <feGaussianBlur stdDeviation="2" result="blur"/>
      <feMerge><feMergeNode in="blur"/><feMergeNode in="SourceGraphic"/></feMerge>
    </filter>
    <style>text { font-family: 'Courier New', monospace; }</style>
  </defs>
  <rect width="480" height="325" fill="#0d1117" rx="12"/>
  <!-- Title -->
  <text x="240" y="20" text-anchor="middle" fill="#8b949e" font-size="11">factorial(n) → flowchart</text>
  <!-- START -->
  <ellipse cx="240" cy="44" rx="48" ry="18" fill="none" stroke="#00ff88" stroke-width="2.2" filter="url(#glow)"/>
  <text x="240" y="50" text-anchor="middle" fill="#00ff88" font-size="13" font-weight="bold">START</text>
  <!-- Arrow START -> diamond -->
  <line x1="240" y1="62" x2="240" y2="86" stroke="#00e5ff" stroke-width="1.8" marker-end="url(#arr)"/>
  <!-- Diamond condition -->
  <polygon points="240,90 314,128 240,166 166,128" fill="none" stroke="#ff2d78" stroke-width="2.2" filter="url(#glow)"/>
  <text x="240" y="124" text-anchor="middle" fill="#ff2d78" font-size="10" font-weight="bold">n &lt;= 1?</text>
  <text x="240" y="137" text-anchor="middle" fill="#ff2d78" font-size="9">(condition)</text>
  <!-- Labels -->
  <text x="136" y="133" text-anchor="middle" fill="#00ff88" font-size="10" font-weight="bold">YES</text>
  <text x="344" y="133" text-anchor="middle" fill="#a855f7" font-size="10" font-weight="bold">NO</text>
  <!-- YES branch -->
  <line x1="166" y1="128" x2="76" y2="128" stroke="#00e5ff" stroke-width="1.8"/>
  <line x1="76" y1="128" x2="76" y2="218" stroke="#00e5ff" stroke-width="1.8" marker-end="url(#arr)"/>
  <!-- return 1 -->
  <rect x="30" y="218" width="92" height="36" rx="7" fill="#0d1117" stroke="#a855f7" stroke-width="2" filter="url(#glow)"/>
  <text x="76" y="241" text-anchor="middle" fill="#a855f7" font-size="12" font-weight="bold">return 1</text>
  <!-- NO branch -->
  <line x1="314" y1="128" x2="404" y2="128" stroke="#00e5ff" stroke-width="1.8"/>
  <line x1="404" y1="128" x2="404" y2="212" stroke="#00e5ff" stroke-width="1.8" marker-end="url(#arr)"/>
  <!-- return n*factorial(n-1) -->
  <rect x="326" y="212" width="130" height="46" rx="7" fill="#0d1117" stroke="#a855f7" stroke-width="2" filter="url(#glow)"/>
  <text x="391" y="231" text-anchor="middle" fill="#a855f7" font-size="10" font-weight="bold">return n *</text>
  <text x="391" y="248" text-anchor="middle" fill="#a855f7" font-size="10" font-weight="bold">factorial(n-1)</text>
  <!-- Converge to END -->
  <line x1="76" y1="254" x2="76" y2="292" stroke="#00e5ff" stroke-width="1.8"/>
  <line x1="76" y1="292" x2="196" y2="292" stroke="#00e5ff" stroke-width="1.8" marker-end="url(#arr)"/>
  <line x1="404" y1="258" x2="404" y2="292" stroke="#00e5ff" stroke-width="1.8"/>
  <line x1="404" y1="292" x2="284" y2="292" stroke="#00e5ff" stroke-width="1.8" marker-end="url(#arr)"/>
  <!-- END -->
  <ellipse cx="240" cy="292" rx="48" ry="18" fill="none" stroke="#00ff88" stroke-width="2.2" filter="url(#glow)"/>
  <text x="240" y="298" text-anchor="middle" fill="#00ff88" font-size="13" font-weight="bold">END</text>
  <!-- Border -->
  <rect width="480" height="325" fill="none" stroke="#30363d" stroke-width="1.2" rx="12"/>
</svg>
