<svg xmlns="http://www.w3.org/2000/svg" width="400" height="650" viewBox="0 0 400 650" style="background:#0d1117">
  <defs>
    <marker id="arr" markerWidth="8" markerHeight="8" refX="4" refY="4" orient="auto">
      <path d="M0,0 L8,4 L0,8 Z" fill="#00e5ff"/>
    </marker>
    <filter id="glow" x="-20%" y="-20%" width="140%" height="140%">
      <feGaussianBlur stdDeviation="2.5" result="blur"/>
      <feMerge><feMergeNode in="blur"/><feMergeNode in="SourceGraphic"/></feMerge>
    </filter>
    <style>
      text { font-family: 'Courier New', monospace; }
    </style>
  </defs>
  <!-- Background -->
  <rect width="400" height="650" fill="#0d1117" rx="14"/>
  <!-- Title -->
  <text x="200" y="32" text-anchor="middle" fill="#8b949e" font-size="12">factorial(n) → flowchart</text>
  <!-- START oval -->
  <ellipse cx="200" cy="74" rx="56" ry="24" fill="none" stroke="#00ff88" stroke-width="2.5" filter="url(#glow)"/>
  <text x="200" y="81" text-anchor="middle" fill="#00ff88" font-size="14" font-weight="bold">START</text>
  <!-- Arrow: START -> condition -->
  <line x1="200" y1="98" x2="200" y2="134" stroke="#00e5ff" stroke-width="2" marker-end="url(#arr)"/>
  <!-- CONDITION diamond (taller spacing) -->
  <polygon points="200,138 280,188 200,238 120,188" fill="none" stroke="#ff2d78" stroke-width="2.5" filter="url(#glow)"/>
  <text x="200" y="183" text-anchor="middle" fill="#ff2d78" font-size="11" font-weight="bold">n &lt;= 1?</text>
  <text x="200" y="199" text-anchor="middle" fill="#ff2d78" font-size="10">(condition)</text>
  <!-- YES label -->
  <text x="84" y="194" text-anchor="middle" fill="#00ff88" font-size="11" font-weight="bold">YES</text>
  <!-- NO label -->
  <text x="316" y="194" text-anchor="middle" fill="#a855f7" font-size="11" font-weight="bold">NO</text>
  <!-- YES branch arrow -->
  <line x1="120" y1="188" x2="60" y2="188" stroke="#00e5ff" stroke-width="2"/>
  <line x1="60" y1="188" x2="60" y2="348" stroke="#00e5ff" stroke-width="2" marker-end="url(#arr)"/>
  <!-- return 1 box -->
  <rect x="16" y="348" width="90" height="44" rx="8" fill="#0d1117" stroke="#a855f7" stroke-width="2.5" filter="url(#glow)"/>
  <text x="61" y="375" text-anchor="middle" fill="#a855f7" font-size="13" font-weight="bold">return 1</text>
  <!-- NO branch arrow -->
  <line x1="280" y1="188" x2="340" y2="188" stroke="#00e5ff" stroke-width="2"/>
  <line x1="340" y1="188" x2="340" y2="340" stroke="#00e5ff" stroke-width="2" marker-end="url(#arr)"/>
  <!-- return n*factorial(n-1) box -->
  <rect x="270" y="340" width="124" height="60" rx="8" fill="#0d1117" stroke="#a855f7" stroke-width="2.5" filter="url(#glow)"/>
  <text x="332" y="364" text-anchor="middle" fill="#a855f7" font-size="11" font-weight="bold">return n *</text>
  <text x="332" y="384" text-anchor="middle" fill="#a855f7" font-size="11" font-weight="bold">factorial(n-1)</text>
  <!-- Converge to END -->
  <line x1="61" y1="392" x2="61" y2="530" stroke="#00e5ff" stroke-width="2"/>
  <line x1="61" y1="530" x2="164" y2="530" stroke="#00e5ff" stroke-width="2" marker-end="url(#arr)"/>
  <line x1="340" y1="400" x2="340" y2="530" stroke="#00e5ff" stroke-width="2"/>
  <line x1="340" y1="530" x2="236" y2="530" stroke="#00e5ff" stroke-width="2" marker-end="url(#arr)"/>
  <!-- END oval -->
  <ellipse cx="200" cy="530" rx="52" ry="24" fill="none" stroke="#00ff88" stroke-width="2.5" filter="url(#glow)"/>
  <text x="200" y="537" text-anchor="middle" fill="#00ff88" font-size="14" font-weight="bold">END</text>
  <!-- Border -->
  <rect width="400" height="650" fill="none" stroke="#30363d" stroke-width="1.5" rx="14"/>
</svg>
